<?xml version="1.0" encoding="UTF-8" standalone="no"?>
<svg
   xmlns:dc="http://purl.org/dc/elements/1.1/"
   xmlns:cc="http://creativecommons.org/ns#"
   xmlns:rdf="http://www.w3.org/1999/02/22-rdf-syntax-ns#"
   xmlns:svg="http://www.w3.org/2000/svg"
   xmlns="http://www.w3.org/2000/svg"
   xmlns:sodipodi="http://sodipodi.sourceforge.net/DTD/sodipodi-0.dtd"
   xmlns:inkscape="http://www.inkscape.org/namespaces/inkscape"
   viewBox="0 0 245 170"
   version="1.1"
   id="svg53"
   sodipodi:docname="No-data-rafiki.svg"
   inkscape:version="1.0.2-2 (e86c870879, 2021-01-15)"
   width="245"
   height="170">
  <metadata
     id="metadata59">
    <rdf:RDF>
      <cc:Work
         rdf:about="">
        <dc:format>image/svg+xml</dc:format>
        <dc:type
           rdf:resource="http://purl.org/dc/dcmitype/StillImage" />
        <dc:title></dc:title>
      </cc:Work>
    </rdf:RDF>
  </metadata>
  <defs
     id="defs57" />
  <sodipodi:namedview
     pagecolor="#ffffff"
     bordercolor="#666666"
     borderopacity="1"
     objecttolerance="10"
     gridtolerance="10"
     guidetolerance="10"
     inkscape:pageopacity="0"
     inkscape:pageshadow="2"
     inkscape:window-width="1920"
     inkscape:window-height="1017"
     id="namedview55"
     showgrid="false"
     inkscape:zoom="3.4"
     inkscape:cx="73.817979"
     inkscape:cy="76.941035"
     inkscape:window-x="-8"
     inkscape:window-y="-8"
     inkscape:window-maximized="1"
     inkscape:current-layer="svg53"
     inkscape:showpageshadow="true"
     inkscape:pagecheckerboard="true" />
  <g
     id="freepik--window-no-data--inject-90"
     transform="translate(-102.53747,-147.93865)">
    <rect
       x="103.78"
       y="202.37"
       width="1"
       height="18.49"
       transform="rotate(-4.12,104.29703,211.55819)"
       style="fill:#00aeff"
       id="rect2" />
    <rect
       x="105.38"
       y="230.35001"
       width="1"
       height="6.96"
       transform="rotate(-4.12,105.86016,233.88439)"
       style="fill:#00aeff"
       id="rect4" />
    <path
       d="M 337.71,315.16 H 123.55 a 9.65,9.65 0 0 1 -9.44,-8.81 L 103.59,160.22 a 8.1,8.1 0 0 1 8.17,-8.8 h 214.16 a 9.65,9.65 0 0 1 9.44,8.8 l 10.52,146.13 a 8.11,8.11 0 0 1 -8.17,8.81 z"
       style="fill:#00aeff"
       id="path6" />
    <path
       d="M 338.53,315.16 H 124.37 a 9.65,9.65 0 0 1 -9.44,-8.81 L 104.41,160.22 a 8.1,8.1 0 0 1 8.17,-8.8 h 214.16 a 9.65,9.65 0 0 1 9.44,8.8 l 10.52,146.13 a 8.1,8.1 0 0 1 -8.17,8.81 z"
       style="fill:#00aeff"
       id="path8" />
    <path
       d="M 338.53,315.16 H 124.37 a 9.65,9.65 0 0 1 -9.44,-8.81 L 104.41,160.22 a 8.1,8.1 0 0 1 8.17,-8.8 h 214.16 a 9.65,9.65 0 0 1 9.44,8.8 l 10.52,146.13 a 8.1,8.1 0 0 1 -8.17,8.81 z"
       style="opacity:0.5;fill:#ffffff"
       id="path10" />
    <path
       d="M 327.06,155.82 H 112.9 112.18 c -5.47,0.45 -4.35,8.78 1.17,8.78 h 214.52 c 5.53,0 5.45,-8.33 -0.09,-8.78 z"
       style="fill:#00aeff"
       id="path12" />
    <path
       d="m 118.48,160.22 a 1.85,1.85 0 0 1 -1.88,2 2.2,2.2 0 0 1 -2.16,-2 1.85,1.85 0 0 1 1.87,-2 2.2,2.2 0 0 1 2.17,2 z"
       style="fill:#fafafa"
       id="path14" />
    <path
       d="m 125.35,160.22 a 1.85,1.85 0 0 1 -1.88,2 2.2,2.2 0 0 1 -2.16,-2 1.85,1.85 0 0 1 1.87,-2 2.2,2.2 0 0 1 2.17,2 z"
       style="fill:#fafafa"
       id="path16" />
    <path
       d="m 132.21,160.22 a 1.85,1.85 0 0 1 -1.87,2 2.19,2.19 0 0 1 -2.16,-2 1.84,1.84 0 0 1 1.87,-2 2.2,2.2 0 0 1 2.16,2 z"
       style="fill:#fafafa"
       id="path18" />
    <path
       d="M 332.85,300.58 H 128 a 3.49,3.49 0 0 1 -3.42,-3.2 l -8.65,-120.17 a 2.92,2.92 0 0 1 3,-3.19 h 204.9 a 3.48,3.48 0 0 1 3.42,3.19 l 8.66,120.17 a 2.94,2.94 0 0 1 -3.06,3.2 z"
       style="fill:#ffffff"
       id="path20" />
    <polygon
       points="233.09,202.4 205.28,202.4 209.06,254.8 246.53,254.8 243.19,208.48 "
       style="fill:#ffffff"
       id="polygon22" />
    <path
       d="m 246.53,255.28 h -37.47 a 0.48,0.48 0 0 1 -0.49,-0.45 l -3.77,-52.4 a 0.47,0.47 0 0 1 0.13,-0.36 0.48,0.48 0 0 1 0.35,-0.16 h 27.81 a 0.55,0.55 0 0 1 0.25,0.07 l 10.1,6.08 a 0.48,0.48 0 0 1 0.24,0.38 l 3.32,46.32 a 0.46,0.46 0 0 1 -0.13,0.37 0.47,0.47 0 0 1 -0.34,0.15 z m -37,-1 H 246 l -3.28,-45.55 -9.72,-5.85 h -27.2 z"
       style="fill:#00aeff"
       id="path24" />
    <polygon
       points="236.8,210.46 243.19,208.48 233.09,202.4 "
       style="fill:#ebebeb"
       id="polygon26" />
    <path
       d="m 236.8,210.94 a 0.49,0.49 0 0 1 -0.44,-0.28 l -3.71,-8.06 a 0.5,0.5 0 0 1 0.11,-0.57 0.5,0.5 0 0 1 0.58,-0.05 l 10.1,6.08 a 0.5,0.5 0 0 1 0.24,0.48 0.49,0.49 0 0 1 -0.34,0.4 l -6.4,2 z m -2.61,-7.32 2.87,6.25 5,-1.53 z"
       style="fill:#00aeff"
       id="path28" />
    <path
       d="m 221,226 a 2,2 0 0 1 -2,2.11 2.31,2.31 0 0 1 -2.26,-2.11 1.94,1.94 0 0 1 2,-2.12 2.32,2.32 0 0 1 2.26,2.12 z"
       style="fill:#00aeff"
       id="path30" />
    <path
       d="m 234.7,226 a 1.94,1.94 0 0 1 -2,2.11 2.32,2.32 0 0 1 -2.27,-2.11 2,2 0 0 1 2,-2.12 2.31,2.31 0 0 1 2.27,2.12 z"
       style="fill:#00aeff"
       id="path32" />
    <path
       d="m 238.58,239.74 a 0.49,0.49 0 0 1 -0.48,-0.45 c -0.25,-3.41 -5.59,-6.18 -11.9,-6.18 -4.19,0 -7.95,1.25 -9.81,3.25 a 3.74,3.74 0 0 0 -1.14,2.86 0.5012235,0.5012235 0 0 1 -1,0.07 4.76,4.76 0 0 1 1.4,-3.59 c 2,-2.19 6.07,-3.56 10.52,-3.56 6.93,0 12.58,3.11 12.86,7.08 a 0.48,0.48 0 0 1 -0.45,0.51 z"
       style="fill:#00aeff"
       id="path34" />
    <path
       d="m 213.17,221.72 a 0.51,0.51 0 0 1 -0.33,-0.13 0.49,0.49 0 0 1 0,-0.69 l 2.13,-2.29 a 0.49,0.49 0 0 1 0.68,0 0.48,0.48 0 0 1 0,0.68 l -2.13,2.29 a 0.48,0.48 0 0 1 -0.35,0.14 z"
       style="fill:#00aeff"
       id="path36" />
    <path
       d="m 237.58,221.72 a 0.55,0.55 0 0 1 -0.33,-0.13 l -2.45,-2.29 a 0.48,0.48 0 0 1 0,-0.69 0.49,0.49 0 0 1 0.68,0 l 2.45,2.29 a 0.48,0.48 0 0 1 0,0.68 0.52,0.52 0 0 1 -0.35,0.14 z"
       style="fill:#00aeff"
       id="path38" />
    <path
       d="m 202.26,265.15 h 2.26 l 3.26,4.34 -0.31,-4.34 h 2.28 l 0.56,7.84 H 208 l -3.24,-4.31 0.31,4.31 h -2.28 z"
       style="fill:#00aeff"
       id="path40" />
    <path
       d="m 211.33,269.07 a 3.8,3.8 0 0 1 0.86,-3 3.76,3.76 0 0 1 2.9,-1.07 4.38,4.38 0 0 1 3.09,1.05 4.32,4.32 0 0 1 1.27,2.94 4.77,4.77 0 0 1 -0.3,2.25 3,3 0 0 1 -1.24,1.37 4.16,4.16 0 0 1 -2.14,0.49 5.25,5.25 0 0 1 -2.23,-0.42 3.62,3.62 0 0 1 -1.5,-1.34 4.66,4.66 0 0 1 -0.71,-2.27 z m 2.43,0 a 2.73,2.73 0 0 0 0.56,1.7 1.59,1.59 0 0 0 1.24,0.52 1.38,1.38 0 0 0 1.17,-0.51 2.75,2.75 0 0 0 0.27,-1.78 2.57,2.57 0 0 0 -0.56,-1.62 1.64,1.64 0 0 0 -1.25,-0.51 1.38,1.38 0 0 0 -1.14,0.52 2.53,2.53 0 0 0 -0.29,1.7 z"
       style="fill:#00aeff"
       id="path42" />
    <path
       d="m 224.15,265.15 h 3.6 a 4.51,4.51 0 0 1 1.74,0.29 3.06,3.06 0 0 1 1.14,0.83 3.76,3.76 0 0 1 0.71,1.25 6.3,6.3 0 0 1 0.3,1.52 5.08,5.08 0 0 1 -0.15,1.95 2.8,2.8 0 0 1 -0.71,1.16 2.3,2.3 0 0 1 -1,0.62 5.6,5.6 0 0 1 -1.43,0.22 h -3.59 z m 2.55,1.78 0.31,4.28 h 0.59 a 2.45,2.45 0 0 0 1.07,-0.17 1,1 0 0 0 0.46,-0.59 3.54,3.54 0 0 0 0.08,-1.36 2.72,2.72 0 0 0 -0.53,-1.7 1.81,1.81 0 0 0 -1.38,-0.46 z"
       style="fill:#00aeff"
       id="path44" />
    <path
       d="m 237.45,271.69 h -2.75 l -0.29,1.3 h -2.47 l 2.38,-7.84 H 237 l 3.51,7.84 h -2.54 z m -0.63,-1.69 -1.06,-2.82 -0.66,2.82 z"
       style="fill:#00aeff"
       id="path46" />
    <path
       d="m 239.37,265.15 h 7.36 l 0.14,1.94 h -2.47 l 0.42,5.9 h -2.42 l -0.42,-5.9 h -2.47 z"
       style="fill:#00aeff"
       id="path48" />
    <path
       d="m 252.37,271.69 h -2.75 l -0.29,1.3 h -2.47 l 2.38,-7.84 h 2.64 l 3.5,7.84 h -2.53 z M 251.74,270 250.67,267.18 250,270 Z"
       style="fill:#00aeff"
       id="path50" />
  </g>
</svg>
